<svg width="500" height="500" viewBox="0 0 500 500" xmlns="http://www.w3.org/2000/svg">
  <defs>
    <path id="textCircleTop" d="M 50, 250 A 200, 200 0 1, 1 450, 250" fill="none" />
    <path id="textCircleBottom" d="M 50, 250 A 200, 200 0 0, 0 450, 250" fill="none" />
  </defs>

  <text fill="#FFFFFF" font-family="Arial, sans-serif" font-weight="bold" font-size="52" letter-spacing="4">
    <textPath href="#textCircleTop" startOffset="50%" text-anchor="middle" side="left">
      BRIGHT
    </textPath>
  </text>

  <text fill="#FFFFFF" font-family="Arial, sans-serif" font-weight="bold" font-size="42" letter-spacing="4">
    <textPath href="#textCircleBottom" startOffset="50%" text-anchor="middle" side="left">
      WHITE LABEL
    </textPath>
  </text>

  <path d="M 90,250 A 160,160 0 0,1 120,150" stroke="#FFFFFF" stroke-width="4" fill="none" />
  <path d="M 410,250 A 160,160 0 0,0 380,150" stroke="#FFFFFF" stroke-width="4" fill="none" />

  <g transform="translate(190, 160) scale(1.2)">
    <path d="M50,0 C22.4,0 0,22.4 0,50 C0,68.6 10.4,84.9 25.6,93.4 L25.6,110 C25.6,115.5 30.1,120 35.6,120 L64.4,120 C69.9,120 74.4,115.5 74.4,110 L74.4,93.4 C89.6,84.9 100,68.6 100,50 C100,22.4 77.6,0 50,0 Z M70,105 L30,105 L30,96 L70,96 L70,105 Z"
          fill="none" stroke="#FFFFFF" stroke-width="5" stroke-linecap="round" stroke-linejoin="round"/>
    <line x1="35" y1="112" x2="65" y2="112" stroke="#FFFFFF" stroke-width="4" />
    <line x1="38" y1="118" x2="62" y2="118" stroke="#FFFFFF" stroke-width="4" />

    <text x="50" y="70" font-family="Arial, sans-serif" font-weight="bold" font-size="36" fill="#FFFFFF" text-anchor="middle">BW</text>
  </g>

  <g stroke="#FFFFFF" stroke-width="4" stroke-linecap="round">
    <line x1="250" y1="130" x2="250" y2="100" />
    <line x1="170" y1="180" x2="145" y2="165" />
    <line x1="330" y1="180" x2="355" y2="165" />
    <line x1="160" y1="250" x2="130" y2="250" />
    <line x1="340" y1="250" x2="370" y2="250" />
  </g>
</svg>